<svg version="1.1" xmlns="http://www.w3.org/2000/svg" xmlns:xlink="http://www.w3.org/1999/xlink">
    <symbol id="logo" viewBox="0 0 21 25">
        <path d="M12.6387 25H17.6907V20.5475H21V16.3548H17.6907V0H10.192C4.98156 7.55371 2.21794 11.9369 0 16.0949V20.5475H12.6387V25ZM4.66471 16.3721C6.72422 12.4567 8.94216 9.04366 12.6387 3.70755H12.7443V16.5107H4.66471V16.3721Z"/>
    </symbol>
    <symbol id="arrow-mini" viewBox="0 0 24 24">
        <path d="M11.5 14L7.60289 10.25L15.3971 10.25L11.5 14Z"/>
    </symbol>
    <symbol id="person" viewBox="0 0 24 24" fill="none">
        <path d="M21 22V21.4325C21 17.8854 17.1843 15 12.4956 15C7.81095 15 4 17.8853 4 21.4325V22" stroke-width="1.5"/>
        <path d="M7.75 8.00025C7.75 5.65713 9.65721 3.75 12 3.75C14.3428 3.75 16.25 5.65712 16.25 8.00025C16.25 10.3428 14.3428 12.25 12 12.25C9.65716 12.25 7.75 10.3428 7.75 8.00025Z" stroke-width="1.5"/>
    </symbol>
    <symbol id="heart" viewBox="0 0 24 24">
        <path d="M12 19.9111L4.33736 11.8471L4.31254 11.821L4.28533 11.7974C4.2398 11.7578 4.19563 11.7156 4.14591 11.6658L4.0854 11.5962L4.0675 11.5756L4.04814 11.5564C3.2243 10.7376 2.75 9.60113 2.75 8.37606C2.75 5.83052 4.83728 3.75 7.41176 3.75C9.04249 3.75 10.534 4.60503 11.3618 5.94643L12 6.9806L12.6383 5.94643C13.466 4.60516 14.9584 3.75 16.5893 3.75C19.1637 3.75 21.25 5.83033 21.25 8.37606C21.25 9.59817 20.7788 10.7358 19.9232 11.5882L19.9108 11.6006L19.899 11.6135C19.801 11.7208 19.7622 11.7561 19.7233 11.7885L19.6897 11.8165L19.6596 11.8481L12 19.9111Z" stroke-width="1.5"/>
    </symbol>
    <symbol id="basket" viewBox="0 0 24 24" >
        <path d="M15.25 8V21.2494H0.75V8H15.25Z" fill="none" stroke-width="1.5"/>
        <path fill-rule="evenodd" clip-rule="evenodd" d="M4.75458 5.93317C5.29217 4.46329 6.60431 3.5 7.99853 3.5C9.39268 3.5 10.7048 4.46329 11.2424 5.93317H12.8095C12.2144 3.66558 10.2829 2 7.99853 2C5.71407 2 3.78256 3.66558 3.1875 5.93317H4.75458Z" stroke="none"/>
    </symbol>
    <symbol id="lens" viewBox="0 0 24 24" fill="none">
        <path d="M17.5742 11.1602C17.5742 14.8881 14.5521 17.9102 10.8242 17.9102C7.0963 17.9102 4.07422 14.8881 4.07422 11.1602C4.07422 7.43223 7.0963 4.41016 10.8242 4.41016C14.5521 4.41016 17.5742 7.43223 17.5742 11.1602Z" stroke-width="1.5"/>
        <path d="M16.0246 15.7137L20.6788 20.3077" stroke-width="1.5"/>
    </symbol>
    <symbol width="34" height="35" viewBox="0 0 34 35" fill="none" xmlns="http://www.w3.org/2000/svg">
        <path d="M15.6027 6.32812L26.9102 17.6406L15.6027 28.9531" stroke="black" stroke-width="2"/>
    </symbol>
    <symbol id="arrow-left" viewBox="0 0 60 60" fill="none">
        <path d="M32.5 50L12.5 30L32.5 10" stroke-width="2"/>
    </symbol>
    <symbol id="arrow-right" viewBox="0 0 60 60" fill="none">
        <path d="M28.4414 10L48.4414 30L28.4414 50" stroke-width="2"/>
    </symbol>
    <symbol id="vkontakte" viewBox="0 0 30 30">
        <path d="M21.9203 19.1279C21.9021 19.0868 21.8852 19.0525 21.8694 19.0252C21.609 18.5323 21.1119 17.9272 20.3779 17.2099L20.3621 17.1936L20.3544 17.1852L20.3466 17.1773H20.3388C20.0055 16.8431 19.7947 16.6187 19.7064 16.5034C19.545 16.2847 19.5085 16.063 19.597 15.8385C19.6598 15.6688 19.8939 15.3102 20.3 14.7624C20.5134 14.4724 20.6826 14.2398 20.8076 14.0641C21.7083 12.8048 22.0986 12.0002 21.979 11.6495L21.9319 11.5673C21.9007 11.5179 21.8199 11.4728 21.6898 11.4317C21.5597 11.3907 21.3931 11.3842 21.1902 11.4113L18.9411 11.4281C18.889 11.4226 18.837 11.424 18.7847 11.432C18.7326 11.4404 18.6989 11.4485 18.6831 11.4567C18.6674 11.4651 18.6546 11.4718 18.6441 11.4771L18.6128 11.5018C18.5868 11.5181 18.5583 11.5469 18.527 11.5883C18.4957 11.6293 18.4694 11.6771 18.4489 11.7321C18.2043 12.3946 17.9258 13.0105 17.6133 13.5802C17.4207 13.9196 17.2436 14.2141 17.0824 14.4631C16.9211 14.7125 16.7857 14.8959 16.6764 15.0133C16.5671 15.1309 16.468 15.2257 16.3797 15.2965C16.2911 15.368 16.2233 15.3979 16.1767 15.3871C16.1297 15.3763 16.0855 15.3652 16.0439 15.3539C15.9711 15.3047 15.9122 15.2377 15.8682 15.1528C15.8238 15.068 15.794 14.9612 15.7782 14.8326C15.7626 14.7039 15.7534 14.593 15.751 14.4999C15.7483 14.4067 15.7497 14.2754 15.7549 14.1057C15.7602 13.9359 15.7627 13.8212 15.7627 13.7607C15.7627 13.5528 15.7666 13.3269 15.7746 13.0831C15.7824 12.8394 15.789 12.6464 15.794 12.5041C15.7992 12.362 15.8018 12.2112 15.8018 12.0523C15.8018 11.8939 15.7926 11.769 15.7744 11.6785C15.7561 11.5883 15.7287 11.5009 15.6924 11.4157C15.6559 11.3309 15.6025 11.2652 15.5322 11.2188C15.4619 11.1723 15.3747 11.1353 15.2706 11.1079C14.9945 11.0421 14.6432 11.0068 14.2164 11.0011C13.248 10.9905 12.6257 11.0563 12.3498 11.1984C12.2405 11.2589 12.1414 11.3407 12.0531 11.445C11.9593 11.5655 11.9463 11.6315 12.0141 11.6418C12.3265 11.6913 12.5477 11.8091 12.6778 11.9951L12.7248 12.0936C12.7611 12.1651 12.7976 12.2909 12.8341 12.4714C12.8706 12.6522 12.8939 12.8519 12.9044 13.071C12.9304 13.4707 12.9304 13.8128 12.9044 14.0977C12.8784 14.3827 12.8538 14.6042 12.8303 14.7627C12.8068 14.9216 12.7716 15.05 12.7248 15.1486C12.6778 15.2476 12.6467 15.3078 12.631 15.3296C12.6152 15.3515 12.6025 15.3652 12.592 15.3707C12.5241 15.3979 12.4541 15.4118 12.3811 15.4118C12.308 15.4118 12.2197 15.3733 12.1154 15.2965C12.0113 15.2202 11.9031 15.1146 11.7913 14.9804C11.6792 14.8464 11.5532 14.6587 11.4124 14.4177C11.2718 14.177 11.1259 13.8923 10.9751 13.5636L10.8502 13.3253C10.7722 13.1721 10.6654 12.9488 10.53 12.656C10.3947 12.3631 10.2748 12.0799 10.1708 11.8058C10.129 11.691 10.0667 11.6034 9.98336 11.5429L9.94434 11.5182C9.91832 11.4963 9.87657 11.4731 9.81929 11.4486C9.76179 11.4239 9.70222 11.4061 9.63965 11.3951L7.49986 11.4114C7.28119 11.4114 7.13286 11.4637 7.05477 11.5677L7.0235 11.6169C7.00776 11.6445 7 11.6884 7 11.7484C7 11.8089 7.01574 11.8826 7.04701 11.97C7.35946 12.7422 7.69912 13.4868 8.06612 14.2038C8.43339 14.9214 8.75197 15.4991 9.02294 15.937C9.29363 16.3753 9.56958 16.7884 9.85077 17.1773C10.132 17.5662 10.318 17.8151 10.4091 17.9246C10.5001 18.0342 10.5716 18.1164 10.6238 18.1711L10.819 18.3684C10.9439 18.4997 11.1276 18.6572 11.3695 18.8406C11.6117 19.0242 11.8797 19.2047 12.1739 19.3824C12.4678 19.5605 12.8105 19.7052 13.2007 19.8178C13.5912 19.9302 13.9713 19.9753 14.3408 19.9532H15.2389C15.4213 19.9369 15.5591 19.8769 15.6528 19.7725L15.684 19.7314C15.7048 19.6988 15.7244 19.6479 15.7427 19.5797C15.7607 19.5113 15.7701 19.436 15.7701 19.3538C15.7646 19.1184 15.7817 18.9059 15.8207 18.7172C15.8598 18.5283 15.9041 18.386 15.9536 18.2899C16.0031 18.1944 16.0588 18.1135 16.1216 18.0477C16.1841 17.9819 16.2282 17.9426 16.2544 17.9287C16.2804 17.9152 16.3014 17.9056 16.317 17.8999C16.4418 17.8562 16.5888 17.8987 16.7582 18.0271C16.9273 18.156 17.0862 18.3144 17.2345 18.5035C17.3829 18.6925 17.5611 18.9045 17.7695 19.1402C17.9777 19.3757 18.1599 19.5507 18.3162 19.6657L18.4725 19.7646C18.5766 19.8301 18.712 19.8903 18.8786 19.9453C19.0451 19.9998 19.1911 20.0137 19.3158 19.9864L21.3151 19.9532C21.513 19.9532 21.6666 19.9191 21.7759 19.8505C21.8852 19.7825 21.9502 19.7066 21.9711 19.6246C21.9918 19.5425 21.9932 19.4498 21.9749 19.3454C21.9566 19.2415 21.9383 19.169 21.9203 19.1279Z"/>
    </symbol>
    <symbol id="facebook" viewBox="0 0 30 30">
        <path d="M13.373 8.94187C13.9756 8.40731 14.8288 8.22562 15.6373 8.20458C16.4907 8.19757 17.344 8.20107 18.1972 8.20107C18.2009 9.04313 18.2009 9.88168 18.1972 10.7237C17.6471 10.7237 17.0931 10.7237 16.543 10.7237C16.1949 10.7027 15.8357 10.9508 15.7721 11.2758C15.7645 11.8384 15.7683 12.4008 15.7683 12.9634C16.5766 12.967 17.3851 12.9634 18.1934 12.967C18.1336 13.781 18.0251 14.5917 17.8979 15.3954C17.183 15.4024 16.4681 15.3954 15.7533 15.3989C15.7458 17.7992 15.757 20.1961 15.7495 22.5967C14.6865 22.6002 13.6275 22.5932 12.5645 22.6002C12.5457 20.1998 12.5645 17.7995 12.5532 15.3989C12.0367 15.3954 11.5165 15.4024 11 15.3954C11.0038 14.5882 11 13.7812 11 12.9775C11.5165 12.9705 12.0367 12.9775 12.5532 12.974C12.5682 12.1913 12.5382 11.4051 12.5682 10.6225C12.6246 9.99718 12.8753 9.37167 13.373 8.94187Z"/>
    </symbol>
    <symbol id="instagram" viewBox="0 0 30 30">
        <path d="M14.9987 11.333C12.9771 11.333 11.332 12.9778 11.332 14.9998C11.332 17.0215 12.9769 18.6663 14.9987 18.6663C17.0203 18.6663 18.6654 17.0215 18.6654 14.9998C18.6654 12.9778 17.0203 11.333 14.9987 11.333ZM14.9987 17.3164C13.7132 17.3164 12.6676 16.277 12.6676 14.9998C12.6676 13.7223 13.7132 12.6831 14.9987 12.6831C16.2839 12.6831 17.3298 13.7223 17.3298 14.9998C17.3298 16.2772 16.2842 17.3164 14.9987 17.3164Z"/>
        <path d="M17.799 8.3999H12.1979C10.103 8.3999 8.39844 10.0976 8.39844 12.1846V17.8152C8.39844 19.902 10.1028 21.5999 12.1979 21.5999H17.799C19.8941 21.5999 21.5984 19.902 21.5984 17.8152V12.1846C21.5984 10.0978 19.8941 8.3999 17.799 8.3999ZM20.341 17.8152C20.341 19.2114 19.2006 20.3474 17.799 20.3474H12.1979C10.7962 20.3474 9.65585 19.2114 9.65585 17.8152V12.1846C9.65585 10.7884 10.7962 9.65244 12.1979 9.65244H17.799C19.2006 9.65244 20.341 10.7884 20.341 12.1846V17.8152Z"/>
        <path d="M18.6669 12.0663C19.0719 12.0663 19.4003 11.738 19.4003 11.3329C19.4003 10.9279 19.0719 10.5996 18.6669 10.5996C18.2619 10.5996 17.9336 10.9279 17.9336 11.3329C17.9336 11.738 18.2619 12.0663 18.6669 12.0663Z"/>
    </symbol>
    <symbol id="whatsapp" viewBox="0 0 30 30">
        <path fill-rule="evenodd" clip-rule="evenodd" d="M20.6687 9.32548C19.9307 8.58614 19.0527 7.99991 18.0854 7.60073C17.1181 7.20155 16.0808 6.99738 15.0337 7.00003C10.6428 7.00003 7.06833 10.5567 7.06656 14.9285C7.06656 16.3257 7.43305 17.6893 8.12967 18.8923L7 23L11.2232 21.8969C12.3914 22.5298 13.7001 22.8616 15.0302 22.8622H15.0337C19.4237 22.8622 22.9982 19.3056 23 14.9338C23.003 13.892 22.7985 12.86 22.3984 11.8974C21.9982 10.9348 21.4104 10.0606 20.6687 9.32548ZM15.0337 21.5242H15.031C13.845 21.5243 12.6809 21.2067 11.6607 20.6048L11.4193 20.4617L8.91325 21.1161L9.58147 18.6847L9.4244 18.4356C8.76132 17.385 8.4103 16.1692 8.41187 14.9285C8.41364 11.295 11.3838 8.33895 15.0364 8.33895C15.9062 8.33703 16.7679 8.50683 17.5714 8.83853C18.3749 9.17023 19.1043 9.65725 19.7174 10.2714C20.3339 10.8826 20.8224 11.6093 21.1549 12.4096C21.4875 13.2099 21.6573 14.0678 21.6547 14.9338C21.6529 18.5672 18.6827 21.5242 15.0337 21.5242ZM18.6659 16.588C18.4662 16.4882 17.4883 16.0095 17.3055 15.9433C17.1236 15.877 16.9913 15.8443 16.8582 16.0422C16.7251 16.24 16.3435 16.686 16.2273 16.8185C16.111 16.951 15.9948 16.9669 15.796 16.868C15.5972 16.7691 14.9556 16.5597 14.1951 15.885C13.6032 15.3595 13.2039 14.7112 13.0876 14.5125C12.9714 14.3138 13.0752 14.2069 13.1755 14.108C13.2651 14.0197 13.3743 13.8766 13.4736 13.7609C13.573 13.6452 13.6059 13.5631 13.6724 13.4306C13.739 13.2981 13.7061 13.1824 13.6556 13.0835C13.6059 12.9837 13.2074 12.0086 13.0415 11.6121C12.8809 11.2279 12.7167 11.2791 12.5942 11.2738C12.4674 11.2686 12.3405 11.2663 12.2135 11.2667C12.1126 11.2693 12.0133 11.2926 11.9218 11.3351C11.8303 11.3777 11.7487 11.4386 11.682 11.514C11.4992 11.7128 10.9853 12.1915 10.9853 13.1665C10.9853 14.1415 11.6988 15.0839 11.7982 15.2164C11.8976 15.3489 13.2021 17.3493 15.1988 18.2078C15.6744 18.4118 16.0454 18.5337 16.3338 18.6255C16.8103 18.7766 17.2442 18.7545 17.5877 18.7041C17.9701 18.6476 18.7653 18.2254 18.9312 17.7626C19.0971 17.2999 19.0971 16.9033 19.0475 16.8203C18.9978 16.7373 18.8638 16.6869 18.6659 16.588Z"/>
    </symbol>
    <symbol id="viber" viewBox="0 0 30 30">
        <path d="M14.7942 6.75C13.4879 6.75 10.2567 6.8875 8.53793 8.5375C7.30043 9.70625 6.81918 11.4938 6.75043 13.625C6.61293 16.9937 7.36918 19.125 8.60668 20.225C8.88168 20.4313 9.56918 20.9812 10.8754 21.3937V23.1125C10.8754 23.1125 10.8754 23.8 11.2879 23.9375C11.3567 23.9375 11.4254 24.0063 11.4942 24.0063C11.9067 24.0063 12.2504 23.525 12.7317 23.0438C13.1442 22.5625 13.4879 22.2188 13.6942 21.875H15.2067C16.5129 21.875 19.7442 21.7375 21.4629 20.0875C22.7004 18.85 23.1817 17.0625 23.1817 14.7937C23.2504 14.45 23.2504 14.0375 23.2504 13.625C23.1817 11.0813 22.4254 9.3625 21.3942 8.4C20.9817 8.05625 19.1942 6.75 15.3442 6.75H14.7942ZM14.6567 8.05625H15.2754C18.9192 8.05625 20.2942 9.225 20.4317 9.3625C21.2567 10.05 21.7379 11.5625 21.8067 13.5562V13.8313C21.8754 14.2438 21.8754 14.5875 21.8754 14.7937C21.8067 16.8562 21.3942 18.2312 20.5692 19.125C19.1254 20.4312 16.1004 20.5 15.2754 20.5H13.9692L12.8692 21.7375L12.1817 22.4937L12.0442 22.7C11.9067 22.8375 11.7004 23.1125 11.5629 23.1812V20.0875C10.1879 19.7437 9.63793 19.2625 9.50043 19.125C8.53793 18.3 7.98793 16.3062 8.12543 13.625V12.9375C8.26293 11.2875 8.67543 10.1875 9.36293 9.43125C10.8067 8.125 13.8317 8.05625 14.6567 8.05625ZM14.5879 9.56875C14.2442 9.56875 14.2442 10.05 14.5879 10.05C17.1317 10.05 19.3317 11.7688 19.3317 15C19.3317 15.3438 19.8129 15.3438 19.8129 15C19.8129 11.4938 17.4754 9.5 14.5879 9.56875ZM11.8634 10.2047C11.7076 10.186 11.5507 10.2289 11.4261 10.3243C10.7386 10.6681 10.0504 11.3569 10.2567 12.1132C10.2567 12.1132 10.3942 12.7313 11.1504 14.0375C11.5629 14.6563 11.9067 15.2063 12.2504 15.6187C12.5942 16.1 13.1442 16.65 13.6942 17.0625C14.7942 17.9563 16.5129 18.85 17.2692 19.0562C17.9567 19.2625 18.7129 18.575 19.0567 17.8875C19.1942 17.6125 19.1254 17.2688 18.8504 17.0625C18.4379 16.65 17.7504 16.1687 17.2692 15.8937C16.9254 15.6875 16.5129 15.825 16.3754 16.0312L16.0317 16.4438C15.8942 16.65 15.5504 16.65 15.5504 16.65C13.2817 16.0312 12.6629 13.6938 12.6629 13.6938C12.6629 13.6938 12.6629 13.4187 12.8692 13.2125L13.2817 12.8687C13.4879 12.7312 13.6254 12.3188 13.4192 11.975C13.2817 11.7688 13.0754 11.3562 12.8692 11.15C12.6629 10.875 12.2504 10.3938 12.2504 10.3938C12.1461 10.2893 12.0099 10.2227 11.8634 10.2047ZM15.0692 10.9438C14.7254 10.875 14.6567 11.425 15.0004 11.425C16.9254 11.5625 18.0254 12.8688 17.9567 14.5188C17.8879 14.8625 18.4379 14.8625 18.4379 14.5188C18.5067 12.5938 17.2692 11.0125 15.0692 10.9438ZM15.2754 12.25C14.9317 12.1813 14.9317 12.7312 15.2754 12.7312C16.1004 12.7312 16.5129 13.2125 16.5129 14.0375C16.5817 14.3813 17.0629 14.3813 17.0629 14.0375C16.9942 12.9375 16.3754 12.25 15.2754 12.25Z"/>
    </symbol>
    <symbol id="chat" viewBox="0 0 44 44">
        <path d="M11.2734 27.2594V16.2891C11.2734 15.1845 12.1689 14.2891 13.2734 14.2891H30.6356C31.7402 14.2891 32.6356 15.1845 32.6356 16.2891V27.2594C32.6356 28.364 31.7402 29.2594 30.6356 29.2594H20.3566L15.4786 33.801V29.2594H13.2734C12.1689 29.2594 11.2734 28.364 11.2734 27.2594Z"/>
    </symbol>
    <symbol id="go-top" viewBox="0 0 44 44" fill="none">
        <path d="M15 25.2857L22 18L29 25.2857" stroke-width="2"/>
    </symbol>
    <symbol id="arrow-drop" viewBox="0 0 12 7" fill="none">
        <path d="M11 1L6 6L1 0.999999"/>
    </symbol>
    <symbol id="remove" viewBox="0 0 10 10" fill="none">
        <path d="M1 1L9 9M9 1L1 9"/>
    </symbol>
    <symbol id="filter" viewBox="0 0 24 24" fill="none">
        <line x1="3" y1="17" x2="3" y2="24" stroke-width="2"/>
        <line x1="3" y1="-4.37113e-08" x2="3" y2="15" stroke-width="2"/>
        <line x1="12" y1="11" x2="12" y2="24" stroke-width="2"/>
        <line x1="12" y1="-4.37114e-08" x2="12" y2="10" stroke-width="2"/>
        <line x1="21" y1="4.37114e-08" x2="21" y2="3" stroke-width="2"/>
        <line x1="21" y1="4" x2="21" y2="24" stroke-width="2"/>
        <line y1="17" x2="6" y2="17" stroke-width="2"/>
        <line x1="9" y1="12" x2="15" y2="12" stroke-width="2"/>
        <line x1="18" y1="5" x2="24" y2="5" stroke-width="2"/>
    </symbol>
    <symbol id="close" viewBox="0 0 24 24" fill="none">
        <path d="M5 19L19 5M19 19L5 5" stroke-width="1.5"/>
    </symbol>
    <symbol id="share" viewBox="0 0 24 25" fill="none">
        <path d="M17.125 8.88672C18.5747 8.88672 19.75 7.71147 19.75 6.26172C19.75 4.81197 18.5747 3.63672 17.125 3.63672C15.6753 3.63672 14.5 4.81197 14.5 6.26172C14.5 7.71147 15.6753 8.88672 17.125 8.88672Z" stroke-width="1.5" stroke-linecap="round" stroke-linejoin="round"/>
        <path d="M6.625 15.0117C8.07475 15.0117 9.25 13.8365 9.25 12.3867C9.25 10.937 8.07475 9.76172 6.625 9.76172C5.17525 9.76172 4 10.937 4 12.3867C4 13.8365 5.17525 15.0117 6.625 15.0117Z" stroke-width="1.5" stroke-linecap="round" stroke-linejoin="round"/>
        <path d="M17.125 21.1367C18.5747 21.1367 19.75 19.9615 19.75 18.5117C19.75 17.062 18.5747 15.8867 17.125 15.8867C15.6753 15.8867 14.5 17.062 14.5 18.5117C14.5 19.9615 15.6753 21.1367 17.125 21.1367Z" stroke-width="1.5" stroke-linecap="round" stroke-linejoin="round"/>
        <path d="M8.89062 13.707L14.8669 17.1895" stroke-width="1.5" stroke-linecap="round" stroke-linejoin="round"/>
        <path d="M14.8581 7.58203L8.89062 11.0645" stroke-width="1.5" stroke-linecap="round" stroke-linejoin="round"/>
    </symbol>
    <symbol id="star" viewBox="0 0 16 15">
        <path d="M8 0L9.92794 5.34642L15.6085 5.52786L11.1195 9.01358L12.7023 14.4721L8 11.28L3.29772 14.4721L4.88053 9.01358L0.391548 5.52786L6.07206 5.34642L8 0Z"/>
    </symbol>
    <symbol id="check" viewBox="0 0 12 10" fill="none">
        <path d="M0.5 3.21022L4.91016 8.35651L11.4991 0.696289"/>
    </symbol>
    <symbol id="eye" viewBox="0 0 24 24" fill="none">
        <path d="M12.0001 17.651C11.0293 17.651 9.82898 17.2771 8.53874 16.671C7.25899 16.0699 5.93862 15.2635 4.74138 14.4497C3.54575 13.637 2.48234 12.8233 1.7174 12.2122C1.40214 11.9604 1.13802 11.7434 0.936742 11.5755C1.13802 11.4076 1.40214 11.1906 1.71741 10.9387C2.48234 10.3277 3.54575 9.51398 4.74138 8.70126C5.93863 7.88743 7.25899 7.08112 8.53874 6.47998C9.82898 5.87391 11.0293 5.5 12.0001 5.5C12.9708 5.5 14.1711 5.87391 15.4614 6.47998C16.7411 7.08112 18.0615 7.88743 19.2587 8.70126C20.4544 9.51398 21.5178 10.3277 22.2827 10.9387C22.598 11.1906 22.8621 11.4076 23.0634 11.5755C22.8621 11.7434 22.598 11.9604 22.2827 12.2122C21.5178 12.8233 20.4544 13.637 19.2587 14.4497C18.0615 15.2635 16.7411 16.0699 15.4614 16.671C14.1711 17.2771 12.9708 17.651 12.0001 17.651Z"/>
        <circle cx="12" cy="11.5752" r="3" fill="white"/>
    </symbol>
    <symbol id="calendar" viewBox="0 0 24 24" fill="none">
        <rect x="3.5" y="5.5" width="16" height="15" rx="0.5"/>
        <rect x="5.5" y="3.5" width="2" height="4" rx="1" fill="white"/>
        <rect x="10.5" y="3.5" width="2" height="4" rx="1" fill="white"/>
        <rect x="5.5" y="10.5" width="2" height="2" rx="0.6" fill="white"/>
        <rect x="10.5" y="10.5" width="2" height="2" rx="0.6" fill="white"/>
        <rect x="15.5" y="10.5" width="2" height="2" rx="0.6" fill="white"/>
        <rect x="5.5" y="15.5" width="2" height="2" rx="0.6" fill="white"/>
        <rect x="10.5" y="15.5" width="2" height="2" rx="0.6" fill="white"/>
        <rect x="15.5" y="15.5" width="2" height="2" rx="0.6" fill="white"/>
        <rect x="15.5" y="3.5" width="2" height="4" rx="1" fill="white"/>
    </symbol>
    <symbol id="share" viewBox="0 0 24 24" fill="none">
        <path d="M17.125 8.25C18.5747 8.25 19.75 7.07475 19.75 5.625C19.75 4.17525 18.5747 3 17.125 3C15.6753 3 14.5 4.17525 14.5 5.625C14.5 7.07475 15.6753 8.25 17.125 8.25Z" stroke-width="1.5" stroke-linecap="round" stroke-linejoin="round"/>
        <path d="M6.625 14.375C8.07475 14.375 9.25 13.1997 9.25 11.75C9.25 10.3003 8.07475 9.125 6.625 9.125C5.17525 9.125 4 10.3003 4 11.75C4 13.1997 5.17525 14.375 6.625 14.375Z" stroke-width="1.5" stroke-linecap="round" stroke-linejoin="round"/>
        <path d="M17.125 20.5C18.5747 20.5 19.75 19.3247 19.75 17.875C19.75 16.4253 18.5747 15.25 17.125 15.25C15.6753 15.25 14.5 16.4253 14.5 17.875C14.5 19.3247 15.6753 20.5 17.125 20.5Z" stroke-width="1.5" stroke-linecap="round" stroke-linejoin="round"/>
        <path d="M8.8916 13.0703L14.8679 16.5528" stroke-width="1.5" stroke-linecap="round" stroke-linejoin="round"/>
        <path d="M14.8591 6.94531L8.8916 10.4278" stroke-width="1.5" stroke-linecap="round" stroke-linejoin="round"/>
    </symbol>
    <symbol id="arrow-left-sm" viewBox="0 0 24 24" fill="none">
        <path d="M13.0342 20L5.03418 12L13.0342 4" stroke-width="2"/>
    </symbol>
    <symbol id="arrow-right-sm" viewBox="0 0 24 24" fill="none">
        <path d="M11.0342 4L19.0342 12L11.0342 20" stroke-width="2"/>
    </symbol>
    <symbol id="play" viewBox="0 0 70 70">
        <circle cx="35" cy="35" r="34" fill="none" stroke-width="2"/>
        <path d="M51.1992 35L26.8992 49.0297L26.8992 20.9704L51.1992 35Z" stroke="none"/>
    </symbol>

</svg>
