<svg version="1.1" xmlns="http://www.w3.org/2000/svg" xmlns:xlink="http://www.w3.org/1999/xlink">
    <symbol id="logo" viewBox="0 0 21 25">
        <path d="M12.6387 25H17.6907V20.5475H21V16.3548H17.6907V0H10.192C4.98156 7.55371 2.21794 11.9369 0 16.0949V20.5475H12.6387V25ZM4.66471 16.3721C6.72422 12.4567 8.94216 9.04366 12.6387 3.70755H12.7443V16.5107H4.66471V16.3721Z"/>
    </symbol>
    <symbol id="arrow-mini" viewBox="0 0 24 24">
        <path d="M11.5 14L7.60289 10.25L15.3971 10.25L11.5 14Z"/>
    </symbol>
    <symbol id="person" viewBox="0 0 24 24" fill="none">
        <path d="M21 22V21.4325C21 17.8854 17.1843 15 12.4956 15C7.81095 15 4 17.8853 4 21.4325V22" stroke-width="1.5"/>
        <path d="M7.75 8.00025C7.75 5.65713 9.65721 3.75 12 3.75C14.3428 3.75 16.25 5.65712 16.25 8.00025C16.25 10.3428 14.3428 12.25 12 12.25C9.65716 12.25 7.75 10.3428 7.75 8.00025Z" stroke-width="1.5"/>
    </symbol>
    <symbol id="heart" viewBox="0 0 24 24">
        <path d="M12 19.9111L4.33736 11.8471L4.31254 11.821L4.28533 11.7974C4.2398 11.7578 4.19563 11.7156 4.14591 11.6658L4.0854 11.5962L4.0675 11.5756L4.04814 11.5564C3.2243 10.7376 2.75 9.60113 2.75 8.37606C2.75 5.83052 4.83728 3.75 7.41176 3.75C9.04249 3.75 10.534 4.60503 11.3618 5.94643L12 6.9806L12.6383 5.94643C13.466 4.60516 14.9584 3.75 16.5893 3.75C19.1637 3.75 21.25 5.83033 21.25 8.37606C21.25 9.59817 20.7788 10.7358 19.9232 11.5882L19.9108 11.6006L19.899 11.6135C19.801 11.7208 19.7622 11.7561 19.7233 11.7885L19.6897 11.8165L19.6596 11.8481L12 19.9111Z" stroke-width="1.5"/>
    </symbol>
    <symbol id="basket" viewBox="0 0 24 24" >
        <path d="M15.25 8V21.2494H0.75V8H15.25Z" fill="none" stroke-width="1.5"/>
        <path fill-rule="evenodd" clip-rule="evenodd" d="M4.75458 5.93317C5.29217 4.46329 6.60431 3.5 7.99853 3.5C9.39268 3.5 10.7048 4.46329 11.2424 5.93317H12.8095C12.2144 3.66558 10.2829 2 7.99853 2C5.71407 2 3.78256 3.66558 3.1875 5.93317H4.75458Z" stroke="none"/>
    </symbol>
    <symbol id="lens" viewBox="0 0 24 24" fill="none">
        <path d="M17.5742 11.1602C17.5742 14.8881 14.5521 17.9102 10.8242 17.9102C7.0963 17.9102 4.07422 14.8881 4.07422 11.1602C4.07422 7.43223 7.0963 4.41016 10.8242 4.41016C14.5521 4.41016 17.5742 7.43223 17.5742 11.1602Z" stroke-width="1.5"/>
        <path d="M16.0246 15.7137L20.6788 20.3077" stroke-width="1.5"/>
    </symbol>
    <symbol width="34" height="35" viewBox="0 0 34 35" fill="none" xmlns="http://www.w3.org/2000/svg">
        <path d="M15.6027 6.32812L26.9102 17.6406L15.6027 28.9531" stroke="black" stroke-width="2"/>
    </symbol>
    <symbol id="arrow-left" viewBox="0 0 60 60" fill="none">
        <path d="M32.5 50L12.5 30L32.5 10" stroke-width="2"/>
    </symbol>
    <symbol id="arrow-right" viewBox="0 0 60 60" fill="none">
        <path d="M28.4414 10L48.4414 30L28.4414 50" stroke-width="2"/>
    </symbol>
    <symbol id="vkontakte" viewBox="0 0 30 30">
        <path d="M21.9203 19.1279C21.9021 19.0868 21.8852 19.0525 21.8694 19.0252C21.609 18.5323 21.1119 17.9272 20.3779 17.2099L20.3621 17.1936L20.3544 17.1852L20.3466 17.1773H20.3388C20.0055 16.8431 19.7947 16.6187 19.7064 16.5034C19.545 16.2847 19.5085 16.063 19.597 15.8385C19.6598 15.6688 19.8939 15.3102 20.3 14.7624C20.5134 14.4724 20.6826 14.2398 20.8076 14.0641C21.7083 12.8048 22.0986 12.0002 21.979 11.6495L21.9319 11.5673C21.9007 11.5179 21.8199 11.4728 21.6898 11.4317C21.5597 11.3907 21.3931 11.3842 21.1902 11.4113L18.9411 11.4281C18.889 11.4226 18.837 11.424 18.7847 11.432C18.7326 11.4404 18.6989 11.4485 18.6831 11.4567C18.6674 11.4651 18.6546 11.4718 18.6441 11.4771L18.6128 11.5018C18.5868 11.5181 18.5583 11.5469 18.527 11.5883C18.4957 11.6293 18.4694 11.6771 18.4489 11.7321C18.2043 12.3946 17.9258 13.0105 17.6133 13.5802C17.4207 13.9196 17.2436 14.2141 17.0824 14.4631C16.9211 14.7125 16.7857 14.8959 16.6764 15.0133C16.5671 15.1309 16.468 15.2257 16.3797 15.2965C16.2911 15.368 16.2233 15.3979 16.1767 15.3871C16.1297 15.3763 16.0855 15.3652 16.0439 15.3539C15.9711 15.3047 15.9122 15.2377 15.8682 15.1528C15.8238 15.068 15.794 14.9612 15.7782 14.8326C15.7626 14.7039 15.7534 14.593 15.751 14.4999C15.7483 14.4067 15.7497 14.2754 15.7549 14.1057C15.7602 13.9359 15.7627 13.8212 15.7627 13.7607C15.7627 13.5528 15.7666 13.3269 15.7746 13.0831C15.7824 12.8394 15.789 12.6464 15.794 12.5041C15.7992 12.362 15.8018 12.2112 15.8018 12.0523C15.8018 11.8939 15.7926 11.769 15.7744 11.6785C15.7561 11.5883 15.7287 11.5009 15.6924 11.4157C15.6559 11.3309 15.6025 11.2652 15.5322 11.2188C15.4619 11.1723 15.3747 11.1353 15.2706 11.1079C14.9945 11.0421 14.6432 11.0068 14.2164 11.0011C13.248 10.9905 12.6257 11.0563 12.3498 11.1984C12.2405 11.2589 12.1414 11.3407 12.0531 11.445C11.9593 11.5655 11.9463 11.6315 12.0141 11.6418C12.3265 11.6913 12.5477 11.8091 12.6778 11.9951L12.7248 12.0936C12.7611 12.1651 12.7976 12.2909 12.8341 12.4714C12.8706 12.6522 12.8939 12.8519 12.9044 13.071C12.9304 13.4707 12.9304 13.8128 12.9044 14.0977C12.8784 14.3827 12.8538 14.6042 12.8303 14.7627C12.8068 14.9216 12.7716 15.05 12.7248 15.1486C12.6778 15.2476 12.6467 15.3078 12.631 15.3296C12.6152 15.3515 12.6025 15.3652 12.592 15.3707C12.5241 15.3979 12.4541 15.4118 12.3811 15.4118C12.308 15.4118 12.2197 15.3733 12.1154 15.2965C12.0113 15.2202 11.9031 15.1146 11.7913 14.9804C11.6792 14.8464 11.5532 14.6587 11.4124 14.4177C11.2718 14.177 11.1259 13.8923 10.9751 13.5636L10.8502 13.3253C10.7722 13.1721 10.6654 12.9488 10.53 12.656C10.3947 12.3631 10.2748 12.0799 10.1708 11.8058C10.129 11.691 10.0667 11.6034 9.98336 11.5429L9.94434 11.5182C9.91832 11.4963 9.87657 11.4731 9.81929 11.4486C9.76179 11.4239 9.70222 11.4061 9.63965 11.3951L7.49986 11.4114C7.28119 11.4114 7.13286 11.4637 7.05477 11.5677L7.0235 11.6169C7.00776 11.6445 7 11.6884 7 11.7484C7 11.8089 7.01574 11.8826 7.04701 11.97C7.35946 12.7422 7.69912 13.4868 8.06612 14.2038C8.43339 14.9214 8.75197 15.4991 9.02294 15.937C9.29363 16.3753 9.56958 16.7884 9.85077 17.1773C10.132 17.5662 10.318 17.8151 10.4091 17.9246C10.5001 18.0342 10.5716 18.1164 10.6238 18.1711L10.819 18.3684C10.9439 18.4997 11.1276 18.6572 11.3695 18.8406C11.6117 19.0242 11.8797 19.2047 12.1739 19.3824C12.4678 19.5605 12.8105 19.7052 13.2007 19.8178C13.5912 19.9302 13.9713 19.9753 14.3408 19.9532H15.2389C15.4213 19.9369 15.5591 19.8769 15.6528 19.7725L15.684 19.7314C15.7048 19.6988 15.7244 19.6479 15.7427 19.5797C15.7607 19.5113 15.7701 19.436 15.7701 19.3538C15.7646 19.1184 15.7817 18.9059 15.8207 18.7172C15.8598 18.5283 15.9041 18.386 15.9536 18.2899C16.0031 18.1944 16.0588 18.1135 16.1216 18.0477C16.1841 17.9819 16.2282 17.9426 16.2544 17.9287C16.2804 17.9152 16.3014 17.9056 16.317 17.8999C16.4418 17.8562 16.5888 17.8987 16.7582 18.0271C16.9273 18.156 17.0862 18.3144 17.2345 18.5035C17.3829 18.6925 17.5611 18.9045 17.7695 19.1402C17.9777 19.3757 18.1599 19.5507 18.3162 19.6657L18.4725 19.7646C18.5766 19.8301 18.712 19.8903 18.8786 19.9453C19.0451 19.9998 19.1911 20.0137 19.3158 19.9864L21.3151 19.9532C21.513 19.9532 21.6666 19.9191 21.7759 19.8505C21.8852 19.7825 21.9502 19.7066 21.9711 19.6246C21.9918 19.5425 21.9932 19.4498 21.9749 19.3454C21.9566 19.2415 21.9383 19.169 21.9203 19.1279Z"/>
    </symbol>
    <symbol id="facebook" viewBox="0 0 30 30">
        <path d="M13.373 8.94089C13.9756 8.40634 14.8288 8.22464 15.6373 8.2036C16.4907 8.19659 17.344 8.2001 18.1972 8.2001C18.2009 9.04215 18.2009 9.8807 18.1972 10.7228C17.6471 10.7228 17.0931 10.7228 16.543 10.7228C16.1949 10.7017 15.8357 10.9498 15.7721 11.2749C15.7645 11.8375 15.7683 12.3999 15.7683 12.9625C16.5766 12.966 17.3851 12.9625 18.1934 12.966C18.1336 13.78 18.0251 14.5907 17.8979 15.3944C17.183 15.4014 16.4681 15.3944 15.7533 15.3979C15.7458 17.7983 15.757 20.1951 15.7495 22.5957C14.6865 22.5992 13.6275 22.5922 12.5645 22.5992C12.5457 20.1989 12.5645 17.7985 12.5532 15.3979C12.0367 15.3944 11.5165 15.4014 11 15.3944C11.0038 14.5872 11 13.7802 11 12.9765C11.5165 12.9695 12.0367 12.9765 12.5532 12.973C12.5682 12.1903 12.5382 11.4042 12.5682 10.6215C12.6246 9.99621 12.8753 9.37069 13.373 8.94089Z"/>
    </symbol>
    <symbol id="instagram" viewBox="0 0 30 30">
        <path d="M14.9987 11.332C12.9771 11.332 11.332 12.9769 11.332 14.9988C11.332 17.0205 12.9769 18.6654 14.9987 18.6654C17.0203 18.6654 18.6654 17.0205 18.6654 14.9988C18.6654 12.9769 17.0203 11.332 14.9987 11.332ZM14.9987 17.3155C13.7132 17.3155 12.6676 16.276 12.6676 14.9988C12.6676 13.7214 13.7132 12.6822 14.9987 12.6822C16.2839 12.6822 17.3298 13.7214 17.3298 14.9988C17.3298 16.2763 16.2842 17.3155 14.9987 17.3155Z"/>
        <path d="M17.799 8.39844H12.1979C10.103 8.39844 8.39844 10.0962 8.39844 12.1831V17.8137C8.39844 19.9005 10.1028 21.5984 12.1979 21.5984H17.799C19.8941 21.5984 21.5984 19.9005 21.5984 17.8137V12.1831C21.5984 10.0964 19.8941 8.39844 17.799 8.39844ZM20.341 17.8137C20.341 19.2099 19.2006 20.3459 17.799 20.3459H12.1979C10.7962 20.3459 9.65585 19.2099 9.65585 17.8137V12.1831C9.65585 10.7869 10.7962 9.65097 12.1979 9.65097H17.799C19.2006 9.65097 20.341 10.7869 20.341 12.1831V17.8137Z"/>
        <path d="M18.6669 12.0643C19.0719 12.0643 19.4003 11.736 19.4003 11.331C19.4003 10.926 19.0719 10.5977 18.6669 10.5977C18.2619 10.5977 17.9336 10.926 17.9336 11.331C17.9336 11.736 18.2619 12.0643 18.6669 12.0643Z"/>
    </symbol>
    <symbol id="chat" viewBox="0 0 44 44">
        <path d="M11.2734 27.2594V16.2891C11.2734 15.1845 12.1689 14.2891 13.2734 14.2891H30.6356C31.7402 14.2891 32.6356 15.1845 32.6356 16.2891V27.2594C32.6356 28.364 31.7402 29.2594 30.6356 29.2594H20.3566L15.4786 33.801V29.2594H13.2734C12.1689 29.2594 11.2734 28.364 11.2734 27.2594Z"/>
    </symbol>
    <symbol id="whatsapp" viewBox="0 0 44 44">
        <path fill-rule="evenodd" clip-rule="evenodd" d="M29.937 14.0565C28.9038 13.0214 27.6745 12.2006 26.3203 11.6418C24.9661 11.083 23.514 10.7971 22.048 10.8008C15.9007 10.8008 10.8964 15.7801 10.894 21.9006C10.894 23.8567 11.4071 25.7659 12.3823 27.4499L10.8008 33.2008L16.7132 31.6564C18.3487 32.5425 20.1809 33.0071 22.043 33.0079H22.048C28.194 33.0079 33.1983 28.0286 33.2007 21.9081C33.205 20.4496 32.9187 19.0048 32.3585 17.6571C31.7983 16.3095 30.9753 15.0857 29.937 14.0565ZM22.048 31.1346H22.0442C20.3838 31.1348 18.754 30.6902 17.3257 29.8475L16.9878 29.6472L13.4793 30.5634L14.4148 27.1594L14.1949 26.8107C13.2666 25.3398 12.7752 23.6376 12.7774 21.9006C12.7799 16.8138 16.9381 12.6753 22.0517 12.6753C23.2695 12.6726 24.4758 12.9103 25.6007 13.3747C26.7256 13.8391 27.7468 14.5209 28.6052 15.3807C29.4682 16.2364 30.1522 17.2538 30.6177 18.3742C31.0832 19.4946 31.321 20.6957 31.3173 21.9081C31.3148 26.9949 27.1566 31.1346 22.048 31.1346ZM27.133 24.224C26.8535 24.0843 25.4844 23.4141 25.2284 23.3214C24.9738 23.2286 24.7886 23.1829 24.6023 23.4598C24.4159 23.7368 23.8817 24.3612 23.719 24.5467C23.5562 24.7322 23.3935 24.7544 23.1152 24.6159C22.8369 24.4775 21.9386 24.1844 20.8739 23.2397C20.0453 22.504 19.4862 21.5965 19.3234 21.3183C19.1607 21.0401 19.3061 20.8904 19.4464 20.752C19.5719 20.6283 19.7247 20.428 19.8639 20.266C20.003 20.104 20.049 19.9891 20.1422 19.8036C20.2353 19.6181 20.1894 19.4561 20.1186 19.3177C20.049 19.1779 19.4912 17.8129 19.2588 17.2577C19.034 16.7198 18.8041 16.7915 18.6327 16.7841C18.4551 16.7769 18.2774 16.7736 18.0997 16.7742C17.9584 16.7778 17.8194 16.8104 17.6913 16.87C17.5632 16.9296 17.4489 17.0148 17.3555 17.1204C17.0996 17.3986 16.3803 18.0688 16.3803 19.4339C16.3803 20.7989 17.3791 22.1183 17.5183 22.3037C17.6574 22.4892 19.4837 25.2898 22.279 26.4917C22.945 26.7773 23.4643 26.9479 23.868 27.0765C24.5352 27.288 25.1427 27.2571 25.6235 27.1866C26.159 27.1074 27.2721 26.5164 27.5045 25.8685C27.7368 25.2206 27.7368 24.6654 27.6672 24.5492C27.5976 24.4329 27.41 24.3625 27.133 24.224Z"/>
    </symbol>
    <symbol id="go-top" viewBox="0 0 44 44" fill="none">
        <path d="M15 25.2857L22 18L29 25.2857" stroke-width="2"/>
    </symbol>
    <symbol id="arrow-drop" viewBox="0 0 12 7" fill="none">
        <path d="M11 1L6 6L1 0.999999"/>
    </symbol>
    <symbol id="remove" viewBox="0 0 10 10" fill="none">
        <path d="M1 1L9 9M9 1L1 9"/>
    </symbol>
    <symbol id="filter" viewBox="0 0 24 24" fill="none">
        <line x1="3" y1="17" x2="3" y2="24" stroke-width="2"/>
        <line x1="3" y1="-4.37113e-08" x2="3" y2="15" stroke-width="2"/>
        <line x1="12" y1="11" x2="12" y2="24" stroke-width="2"/>
        <line x1="12" y1="-4.37114e-08" x2="12" y2="10" stroke-width="2"/>
        <line x1="21" y1="4.37114e-08" x2="21" y2="3" stroke-width="2"/>
        <line x1="21" y1="4" x2="21" y2="24" stroke-width="2"/>
        <line y1="17" x2="6" y2="17" stroke-width="2"/>
        <line x1="9" y1="12" x2="15" y2="12" stroke-width="2"/>
        <line x1="18" y1="5" x2="24" y2="5" stroke-width="2"/>
    </symbol>
    <symbol id="close" viewBox="0 0 24 24" fill="none">
        <path d="M5 19L19 5M19 19L5 5" stroke="white" stroke-width="1.5"/>
    </symbol>
    <symbol id="share" viewBox="0 0 24 25" fill="none">
        <path d="M17.125 8.88672C18.5747 8.88672 19.75 7.71147 19.75 6.26172C19.75 4.81197 18.5747 3.63672 17.125 3.63672C15.6753 3.63672 14.5 4.81197 14.5 6.26172C14.5 7.71147 15.6753 8.88672 17.125 8.88672Z" stroke-width="1.5" stroke-linecap="round" stroke-linejoin="round"/>
        <path d="M6.625 15.0117C8.07475 15.0117 9.25 13.8365 9.25 12.3867C9.25 10.937 8.07475 9.76172 6.625 9.76172C5.17525 9.76172 4 10.937 4 12.3867C4 13.8365 5.17525 15.0117 6.625 15.0117Z" stroke-width="1.5" stroke-linecap="round" stroke-linejoin="round"/>
        <path d="M17.125 21.1367C18.5747 21.1367 19.75 19.9615 19.75 18.5117C19.75 17.062 18.5747 15.8867 17.125 15.8867C15.6753 15.8867 14.5 17.062 14.5 18.5117C14.5 19.9615 15.6753 21.1367 17.125 21.1367Z" stroke-width="1.5" stroke-linecap="round" stroke-linejoin="round"/>
        <path d="M8.89062 13.707L14.8669 17.1895" stroke-width="1.5" stroke-linecap="round" stroke-linejoin="round"/>
        <path d="M14.8581 7.58203L8.89062 11.0645" stroke-width="1.5" stroke-linecap="round" stroke-linejoin="round"/>
    </symbol>
    <symbol id="star" viewBox="0 0 16 15">
        <path d="M8 0L9.92794 5.34642L15.6085 5.52786L11.1195 9.01358L12.7023 14.4721L8 11.28L3.29772 14.4721L4.88053 9.01358L0.391548 5.52786L6.07206 5.34642L8 0Z"/>
    </symbol>

</svg>
